<svg xmlns="http://www.w3.org/2000/svg" xmlns:xlink="http://www.w3.org/1999/xlink" preserveAspectRatio="xMidYMid" width="19.69" height="17.47" viewBox="0 0 19.69 17.47">
  <defs>
    <style>
      .cls-1 {
        fill: #fff;
        fill-rule: evenodd;
      }
    </style>
  </defs>
  <path d="M19.281,8.744 L16.312,8.744 L16.312,11.674 C16.312,11.898 16.128,12.079 15.901,12.079 L15.056,12.079 C14.829,12.079 14.645,11.898 14.645,11.674 L14.645,8.744 L11.676,8.744 C11.449,8.744 11.265,8.563 11.265,8.339 L11.265,7.504 C11.265,7.281 11.449,7.099 11.676,7.099 L14.645,7.099 L14.645,4.170 C14.645,3.946 14.829,3.764 15.056,3.764 L15.901,3.764 C16.128,3.764 16.312,3.946 16.312,4.170 L16.312,7.099 L19.281,7.099 C19.507,7.099 19.691,7.281 19.691,7.504 L19.691,8.339 C19.691,8.563 19.507,8.744 19.281,8.744 ZM10.381,1.580 C10.311,1.630 10.227,1.657 10.140,1.657 L9.722,1.657 C10.262,2.296 10.579,3.205 10.579,4.229 C10.579,5.358 9.999,6.426 8.947,7.239 C8.133,7.865 8.100,8.036 8.100,8.394 C8.110,8.591 8.678,9.231 9.303,9.667 C10.760,10.684 11.302,11.681 11.302,13.347 C11.302,15.083 9.964,16.587 7.893,17.180 C7.229,17.369 6.511,17.466 5.757,17.466 C4.919,17.466 4.112,17.370 3.360,17.183 C1.905,16.820 0.827,16.133 0.326,15.248 C0.110,14.865 -0.001,14.457 -0.001,14.034 C-0.001,13.598 0.105,13.157 0.313,12.721 C1.111,11.043 3.213,9.916 5.542,9.916 C5.566,9.916 5.587,9.916 5.609,9.915 C5.420,9.587 5.327,9.247 5.327,8.888 C5.327,8.710 5.351,8.528 5.399,8.344 C2.956,8.288 1.129,6.524 1.129,4.196 C1.129,2.553 2.460,0.953 4.363,0.305 C4.933,0.111 5.514,0.012 6.086,0.012 L11.309,0.012 C11.487,0.012 11.644,0.126 11.699,0.293 C11.755,0.460 11.694,0.643 11.549,0.745 L10.381,1.580 ZM2.705,13.480 C2.705,14.799 4.041,15.831 5.747,15.831 C7.997,15.831 9.138,15.066 9.138,13.557 C9.138,13.414 9.120,13.266 9.084,13.119 C8.933,12.532 8.389,12.166 7.565,11.612 C7.452,11.537 7.334,11.457 7.212,11.374 C6.856,11.267 6.479,11.210 6.092,11.206 L6.044,11.206 C4.266,11.206 2.705,12.269 2.705,13.480 ZM7.883,4.383 C7.680,2.856 6.575,1.587 5.421,1.553 L5.374,1.553 C4.965,1.553 4.601,1.718 4.324,2.031 C3.894,2.515 3.712,3.281 3.826,4.134 C4.027,5.659 5.156,6.977 6.287,7.011 L6.305,7.011 C6.306,7.011 6.306,7.011 6.306,7.011 C6.731,7.011 7.090,6.845 7.369,6.532 C7.804,6.042 7.997,5.238 7.883,4.383 Z" class="cls-1"/>
</svg>
