<svg xmlns="http://www.w3.org/2000/svg" xmlns:xlink="http://www.w3.org/1999/xlink" preserveAspectRatio="xMidYMid" width="18.38" height="17.84" viewBox="0 0 18.38 17.84">
  <defs>
    <style>
      .cls-1 {
        fill: #fff;
        fill-rule: evenodd;
      }
    </style>
  </defs>
  <path d="M15.312,6.376 C14.397,6.376 13.584,5.950 13.023,5.289 L5.981,8.015 C6.064,8.303 6.122,8.602 6.122,8.918 C6.122,9.108 6.098,9.291 6.068,9.472 L12.772,12.869 C13.323,12.023 14.255,11.467 15.312,11.467 C17.004,11.467 18.376,12.892 18.376,14.649 C18.376,16.406 17.004,17.830 15.312,17.830 C13.648,17.830 12.300,16.450 12.257,14.732 L5.222,11.167 C4.667,11.741 3.903,12.096 3.058,12.096 C1.366,12.096 -0.006,10.673 -0.006,8.918 C-0.006,7.163 1.366,5.740 3.058,5.740 C3.754,5.740 4.388,5.990 4.902,6.395 L12.282,3.538 C12.270,3.424 12.249,3.312 12.249,3.195 C12.249,1.437 13.620,0.013 15.312,0.013 C17.004,0.013 18.376,1.437 18.376,3.195 C18.376,4.952 17.004,6.376 15.312,6.376 Z" class="cls-1"/>
</svg>
