<svg xmlns="http://www.w3.org/2000/svg" xmlns:xlink="http://www.w3.org/1999/xlink" preserveAspectRatio="xMidYMid" width="19.47" height="15.59" viewBox="0 0 19.47 15.59">
  <defs>
    <style>
      .cls-1 {
        fill: #fff;
        fill-rule: evenodd;
      }
    </style>
  </defs>
  <path d="M19.467,1.837 C18.751,2.151 17.981,2.363 17.173,2.458 C17.998,1.970 18.631,1.198 18.929,0.277 C18.158,0.729 17.303,1.057 16.393,1.234 C15.664,0.468 14.626,-0.011 13.477,-0.011 C11.271,-0.011 9.482,1.754 9.482,3.931 C9.482,4.240 9.518,4.541 9.586,4.829 C6.265,4.665 3.322,3.096 1.351,0.711 C1.008,1.293 0.811,1.970 0.811,2.692 C0.811,4.060 1.516,5.266 2.588,5.973 C1.933,5.952 1.317,5.775 0.778,5.480 C0.778,5.496 0.778,5.513 0.778,5.530 C0.778,7.439 2.155,9.033 3.983,9.395 C3.647,9.485 3.294,9.533 2.930,9.533 C2.672,9.533 2.422,9.508 2.178,9.462 C2.687,11.028 4.162,12.168 5.910,12.200 C4.543,13.257 2.820,13.887 0.949,13.887 C0.626,13.887 0.308,13.868 -0.004,13.832 C1.764,14.951 3.864,15.603 6.119,15.603 C13.468,15.603 17.485,9.597 17.485,4.388 C17.485,4.217 17.482,4.047 17.474,3.878 C18.255,3.322 18.932,2.628 19.467,1.837 Z" class="cls-1"/>
</svg>
